PathFileType	4	(X/Y/Z)	/workspace/run/tmplgzb2bw3/output.trc
DataRate	CameraRate	NumFrames	NumMarkers	Units	OrigDataRate	OrigDataStartFrame	OrigNumFrames
55.4924	55.4924	3	236	m	55.4924	69	555
Frame#	Time	BLTI			BRTI			C7			CHIN			CLAV			FBBT			FLTI			FRBT			FRTI			LAKI			LANK			LBAC			LBHD			LBWT			LELB			LELS			LELSO			LFBB			LFBT			LFFB			LFFT			LFHD			LFIN			LFLB			LFLT			LFMB			LFMT			LFPI			LFRM			LFWT			LHAP			LHBA			LHDIND1			LHDIND2			LHDIND3			LHDIND4			LHDLPINK3			LHDLPINK4			LHDMID1			LHDMID2			LHDMID3			LHDMID4			LHDPINK1			LHDPINK2			LHDRNG1			LHDRNG2			LHDRNG3			LHDTH1			LHDTH2			LHDTH3			LHDTH4			LHEB			LHEE			LHFR			LHME			LHPI			LHTH			LHTO			LHUIND1			LHUIND2			LHUIND3			LHUIND4			LHULPINK3			LHUMID1			LHUMID2			LHUMID3			LHUMID4			LHUPINK1			LHUPINK2			LHUPINK4			LHURNG1			LHURNG2			LHURNG3			LHUTH1			LHUTH2			LHUTH3			LHUTH4			LING4			LKNE			LKNI			LMT5			LSCA			LSHN			LSHO			LTIA			LTIB			LTIC			LTOE			LTOP			LTOS			LUMB			LUMC			LWRA			LWRB			NOSE			RAKI			RANK			RBAC			RBHD			RBWT			RELB			RELS			RELSO			RFBB			RFBT			RFFB			RFFT			RFHD			RFIN			RFLB			RFLT			RFMB			RFMT			RFPI			RFRM			RFWT			RHAP			RHBA			RHDIND1			RHDIND2			RHDIND3			RHDIND4			RHDMID1			RHDMID2			RHDMID4			RHDPINK1			RHDPINK2			RHDPINK3			RHDPINK4			RHDRING1			RHDRING2			RHDRING3			RHDRING4			RHDRMID3			RHDTH1			RHDTH2			RHDTH3			RHDTH4			RHEB			RHEE			RHFR			RHME			RHPI			RHTH			RHTO			RHUIND1			RHUIND2			RHUIND3			RHUIND4			RHUMID1			RHUMID2			RHUMID4			RHUPINK1			RHUPINK2			RHUPINK3			RHUPINK4			RHURING1			RHURING2			RHURING3			RHURING4			RHURMID3			RHUTH1			RHUTH2			RHUTH3			RHUTH4			RIBL			RIBR			RITL			RITR			RKNE			RKNI			RMT5			RSCA			RSHN			RSHO			RTIA			RTIB			RTIC			RTOE			RTOP			RTOS			RWRA			RWRB			THD			head			left_ankle			left_collar			left_elbow			left_foot			left_hip			left_index1			left_index2			left_index3			left_knee			left_middle1			left_middle2			left_middle3			left_pinky1			left_pinky2			left_pinky3			left_ring1			left_ring2			left_ring3			left_shoulder			left_thumb1			left_thumb2			left_thumb3			left_wrist			neck			pelvis			right_ankle			right_collar			right_elbow			right_foot			right_hip			right_index1			right_index2			right_index3			right_knee			right_middle1			right_middle2			right_middle3			right_pinky1			right_pinky2			right_pinky3			right_ring1			right_ring2			right_ring3			right_shoulder			right_thumb1			right_thumb2			right_thumb3			right_wrist			spine1			spine2			spine3		
		X1	Y1	Z1	X2	Y2	Z2	X3	Y3	Z3	X4	Y4	Z4	X5	Y5	Z5	X6	Y6	Z6	X7	Y7	Z7	X8	Y8	Z8	X9	Y9	Z9	X10	Y10	Z10	X11	Y11	Z11	X12	Y12	Z12	X13	Y13	Z13	X14	Y14	Z14	X15	Y15	Z15	X16	Y16	Z16	X17	Y17	Z17	X18	Y18	Z18	X19	Y19	Z19	X20	Y20	Z20	X21	Y21	Z21	X22	Y22	Z22	X23	Y23	Z23	X24	Y24	Z24	X25	Y25	Z25	X26	Y26	Z26	X27	Y27	Z27	X28	Y28	Z28	X29	Y29	Z29	X30	Y30	Z30	X31	Y31	Z31	X32	Y32	Z32	X33	Y33	Z33	X34	Y34	Z34	X35	Y35	Z35	X36	Y36	Z36	X37	Y37	Z37	X38	Y38	Z38	X39	Y39	Z39	X40	Y40	Z40	X41	Y41	Z41	X42	Y42	Z42	X43	Y43	Z43	X44	Y44	Z44	X45	Y45	Z45	X46	Y46	Z46	X47	Y47	Z47	X48	Y48	Z48	X49	Y49	Z49	X50	Y50	Z50	X51	Y51	Z51	X52	Y52	Z52	X53	Y53	Z53	X54	Y54	Z54	X55	Y55	Z55	X56	Y56	Z56	X57	Y57	Z57	X58	Y58	Z58	X59	Y59	Z59	X60	Y60	Z60	X61	Y61	Z61	X62	Y62	Z62	X63	Y63	Z63	X64	Y64	Z64	X65	Y65	Z65	X66	Y66	Z66	X67	Y67	Z67	X68	Y68	Z68	X69	Y69	Z69	X70	Y70	Z70	X71	Y71	Z71	X72	Y72	Z72	X73	Y73	Z73	X74	Y74	Z74	X75	Y75	Z75	X76	Y76	Z76	X77	Y77	Z77	X78	Y78	Z78	X79	Y79	Z79	X80	Y80	Z80	X81	Y81	Z81	X82	Y82	Z82	X83	Y83	Z83	X84	Y84	Z84	X85	Y85	Z85	X86	Y86	Z86	X87	Y87	Z87	X88	Y88	Z88	X89	Y89	Z89	X90	Y90	Z90	X91	Y91	Z91	X92	Y92	Z92	X93	Y93	Z93	X94	Y94	Z94	X95	Y95	Z95	X96	Y96	Z96	X97	Y97	Z97	X98	Y98	Z98	X99	Y99	Z99	X100	Y100	Z100	X101	Y101	Z101	X102	Y102	Z102	X103	Y103	Z103	X104	Y104	Z104	X105	Y105	Z105	X106	Y106	Z106	X107	Y107	Z107	X108	Y108	Z108	X109	Y109	Z109	X110	Y110	Z110	X111	Y111	Z111	X112	Y112	Z112	X113	Y113	Z113	X114	Y114	Z114	X115	Y115	Z115	X116	Y116	Z116	X117	Y117	Z117	X118	Y118	Z118	X119	Y119	Z119	X120	Y120	Z120	X121	Y121	Z121	X122	Y122	Z122	X123	Y123	Z123	X124	Y124	Z124	X125	Y125	Z125	X126	Y126	Z126	X127	Y127	Z127	X128	Y128	Z128	X129	Y129	Z129	X130	Y130	Z130	X131	Y131	Z131	X132	Y132	Z132	X133	Y133	Z133	X134	Y134	Z134	X135	Y135	Z135	X136	Y136	Z136	X137	Y137	Z137	X138	Y138	Z138	X139	Y139	Z139	X140	Y140	Z140	X141	Y141	Z141	X142	Y142	Z142	X143	Y143	Z143	X144	Y144	Z144	X145	Y145	Z145	X146	Y146	Z146	X147	Y147	Z147	X148	Y148	Z148	X149	Y149	Z149	X150	Y150	Z150	X151	Y151	Z151	X152	Y152	Z152	X153	Y153	Z153	X154	Y154	Z154	X155	Y155	Z155	X156	Y156	Z156	X157	Y157	Z157	X158	Y158	Z158	X159	Y159	Z159	X160	Y160	Z160	X161	Y161	Z161	X162	Y162	Z162	X163	Y163	Z163	X164	Y164	Z164	X165	Y165	Z165	X166	Y166	Z166	X167	Y167	Z167	X168	Y168	Z168	X169	Y169	Z169	X170	Y170	Z170	X171	Y171	Z171	X172	Y172	Z172	X173	Y173	Z173	X174	Y174	Z174	X175	Y175	Z175	X176	Y176	Z176	X177	Y177	Z177	X178	Y178	Z178	X179	Y179	Z179	X180	Y180	Z180	X181	Y181	Z181	X182	Y182	Z182	X183	Y183	Z183	X184	Y184	Z184	X185	Y185	Z185	X186	Y186	Z186	X187	Y187	Z187	X188	Y188	Z188	X189	Y189	Z189	X190	Y190	Z190	X191	Y191	Z191	X192	Y192	Z192	X193	Y193	Z193	X194	Y194	Z194	X195	Y195	Z195	X196	Y196	Z196	X197	Y197	Z197	X198	Y198	Z198	X199	Y199	Z199	X200	Y200	Z200	X201	Y201	Z201	X202	Y202	Z202	X203	Y203	Z203	X204	Y204	Z204	X205	Y205	Z205	X206	Y206	Z206	X207	Y207	Z207	X208	Y208	Z208	X209	Y209	Z209	X210	Y210	Z210	X211	Y211	Z211	X212	Y212	Z212	X213	Y213	Z213	X214	Y214	Z214	X215	Y215	Z215	X216	Y216	Z216	X217	Y217	Z217	X218	Y218	Z218	X219	Y219	Z219	X220	Y220	Z220	X221	Y221	Z221	X222	Y222	Z222	X223	Y223	Z223	X224	Y224	Z224	X225	Y225	Z225	X226	Y226	Z226	X227	Y227	Z227	X228	Y228	Z228	X229	Y229	Z229	X230	Y230	Z230	X231	Y231	Z231	X232	Y232	Z232	X233	Y233	Z233	X234	Y234	Z234	X235	Y235	Z235	X236	Y236	Z236

70	1.14974	0.721583	0.198535	0.873801	0.655498	0.195902	0.616438	0.575975	1.43999	0.709693	0.384587	1.47856	0.551359	0.456349	1.37646	0.623778	0.642511	0.139538	0.863965	0.628937	0.24358	0.816201	0.60327	0.140411	0.559865	0.559425	0.246681	0.57837	0.694016	0.0562951	0.822847	0.702074	0.0470735	0.901267	0.586033	1.27668	0.832095	0.497328	1.58708	0.704621	0.651172	0.916003	0.8057	0.421188	1.08677	0.970602	0.44721	1.08892	0.911331	0.386779	1.10674	0.966279	0.633492	0.538813	0.850019	0.616563	0.674802	0.835716	0.530356	0.449109	0.777405	0.508366	0.615058	0.701015	0.378413	1.61663	0.628785	0.317169	0.758782	0.884597	0.538157	0.49102	0.857792	0.487525	0.663802	0.863803	0.607647	0.505614	0.735285	0.596763	0.656041	0.709284	0.51681	0.0246262	0.868123	0.369682	0.97968	0.954042	0.407228	0.895483	0.748796	0.426593	1.2414	0.830538	0.450257	1.19647	0.930727	0.347633	0.744805	0.858225	0.350394	0.723636	0.85656	0.339779	0.696565	0.853518	0.356319	0.679361	0.852757	0.341892	0.731252	0.953248	0.354102	0.722251	0.955848	0.345367	0.742334	0.886674	0.348096	0.717458	0.889203	0.352892	0.692239	0.887762	0.356473	0.671585	0.891766	0.346392	0.767765	0.930878	0.34751	0.753712	0.938546	0.345211	0.749341	0.908965	0.347569	0.729103	0.913402	0.351269	0.713069	0.917381	0.354351	0.814885	0.836674	0.352125	0.801476	0.823143	0.354572	0.786803	0.811405	0.357221	0.771785	0.802165	0.702803	-0.0318208	0.891666	0.742631	-0.0066663	0.891776	0.378652	1.18496	0.85002	0.348332	0.660664	0.893495	0.341327	0.792185	0.932956	0.331777	0.809003	0.820542	0.363429	1.25499	0.903693	0.326074	0.737413	0.858284	0.331879	0.717381	0.855283	0.354052	0.70378	0.857208	0.345761	0.676997	0.853492	0.352003	0.736117	0.949091	0.323886	0.735923	0.885089	0.329652	0.713231	0.88699	0.338605	0.688562	0.888792	0.342876	0.671928	0.891287	0.329372	0.769093	0.933486	0.333927	0.75221	0.942784	0.344792	0.721309	0.957544	0.326699	0.744381	0.910497	0.330825	0.726185	0.913999	0.336558	0.709016	0.917083	0.319878	0.812644	0.834047	0.330128	0.79474	0.819514	0.33508	0.776921	0.807129	0.33697	0.767094	0.800004	0.343564	0.683106	0.922487	0.582964	0.431385	0.872591	0.604521	0.418578	0.760873	0.524631	0.0262171	0.825135	0.536868	1.41366	0.799524	0.652652	0.339357	0.911512	0.402564	1.4029	0.802235	0.574877	0.353589	0.821528	0.616378	0.21067	0.864367	0.655565	0.109223	0.846155	0.490643	0.0216951	0.785834	0.559483	0.0202733	0.896095	0.560309	-0.0012784	0.789466	0.6429	1.06861	0.758663	0.644725	1.03715	0.757977	0.309492	0.865723	0.852344	0.313945	0.859178	0.914051	0.382841	1.58022	0.54346	0.599555	0.0607691	0.624058	0.662131	0.0424498	0.589542	0.694272	1.27611	0.686389	0.564837	1.58057	0.61928	0.692419	0.916982	0.749335	0.770645	1.06318	0.469001	0.714763	1.0742	0.511568	0.760414	1.09592	0.443085	0.62345	0.510922	0.602361	0.666817	0.641879	0.655427	0.496009	0.474222	0.50848	0.486761	0.654054	0.590664	0.467783	1.60785	0.519979	0.66045	0.751581	0.397542	0.59632	0.505956	0.512994	0.623581	0.680978	0.506152	0.522785	0.506367	0.632844	0.537658	0.64792	0.671053	0.527072	0.0291412	0.449016	0.753749	0.972995	0.427454	0.570893	0.89906	0.535005	0.644265	1.23052	0.526129	0.743221	1.17753	0.521289	0.661411	0.742537	0.439388	0.659261	0.718707	0.439122	0.656036	0.701666	0.447847	0.651853	0.678608	0.452068	0.678166	0.732259	0.416642	0.674544	0.707258	0.419082	0.661396	0.664181	0.418999	0.718758	0.745521	0.380404	0.721126	0.729498	0.377419	0.723905	0.708408	0.377688	0.727578	0.693665	0.374769	0.694956	0.732297	0.399007	0.694305	0.711227	0.3991	0.696109	0.694479	0.400491	0.696876	0.669615	0.401426	0.674866	0.688189	0.421843	0.645721	0.809552	0.420686	0.643467	0.800618	0.447774	0.653746	0.793874	0.471436	0.639509	0.780465	0.490666	0.649074	-0.0320032	0.59797	0.675187	-0.00866568	0.63052	0.654878	1.15799	0.466505	0.663955	0.652481	0.422317	0.718908	0.766606	0.374667	0.644822	0.819156	0.449362	0.707505	1.22512	0.453301	0.644552	0.737837	0.425476	0.642138	0.718281	0.433353	0.641734	0.697385	0.441645	0.641919	0.678621	0.447366	0.659841	0.728857	0.404279	0.65958	0.705866	0.40914	0.670838	0.662032	0.427887	0.704352	0.745245	0.368846	0.710042	0.727062	0.367443	0.716581	0.708406	0.367572	0.72043	0.693369	0.368114	0.680955	0.729021	0.385347	0.681833	0.710305	0.387564	0.683923	0.692198	0.390795	0.686432	0.670152	0.393616	0.659997	0.689332	0.41416	0.679968	0.808793	0.438967	0.660365	0.801842	0.458356	0.639843	0.794028	0.45752	0.622971	0.783454	0.490168	0.406208	1.04607	0.785624	0.625655	1.06169	0.534447	0.406208	1.34853	0.688244	0.506594	1.34415	0.558512	0.581123	0.430448	0.507114	0.504677	0.423973	0.595884	0.499984	0.0325949	0.480446	0.65693	1.40093	0.651765	0.63917	0.260856	0.531688	0.619278	1.39722	0.521391	0.531784	0.356275	0.532685	0.564346	0.242559	0.551636	0.595119	0.110497	0.580255	0.45178	0.0264913	0.480299	0.579422	0.0194197	0.468069	0.491441	0.00315911	0.534346	0.655209	0.86114	0.390298	0.708831	0.846961	0.366821	0.486663	1.71033	0.617886	0.460921	1.49645	0.610247	0.690323	0.038575	0.853162	0.472423	1.3229	0.734063	0.408974	1.0917	0.938536	0.552855	0.0145243	0.852972	0.534756	0.783446	0.750542	0.337665	0.754908	0.861196	0.340912	0.721972	0.856619	0.347232	0.699327	0.855208	0.59117	0.432372	0.827209	0.335985	0.745934	0.885399	0.340484	0.714095	0.888339	0.346638	0.69008	0.891028	0.339509	0.771769	0.928834	0.342513	0.754438	0.93956	0.346706	0.737533	0.949328	0.336521	0.757844	0.910508	0.340052	0.72834	0.913473	0.34582	0.70485	0.918948	0.400923	1.32352	0.850972	0.339362	0.82021	0.855216	0.339173	0.802055	0.829092	0.345098	0.780638	0.812753	0.311057	0.857401	0.886859	0.523509	1.42964	0.658302	0.556724	0.869702	0.691133	0.618688	0.0393505	0.610008	0.576716	1.32155	0.60694	0.736361	1.08293	0.470885	0.531935	0.0188754	0.49289	0.603335	0.776681	0.643898	0.65898	0.753148	0.429364	0.650198	0.721309	0.438011	0.648755	0.698844	0.445159	0.553494	0.429929	0.543604	0.671292	0.737118	0.410792	0.667911	0.70526	0.415166	0.6681	0.681041	0.419906	0.709787	0.748745	0.379049	0.715092	0.729259	0.375655	0.720462	0.710316	0.373642	0.691686	0.740893	0.391207	0.688732	0.711392	0.394062	0.691111	0.686762	0.396286	0.656538	1.32151	0.509251	0.673577	0.817678	0.424582	0.653638	0.809	0.448655	0.643539	0.793076	0.469496	0.685239	0.845014	0.377932	0.587837	1.00347	0.71899	0.538694	1.14432	0.69384	0.525054	1.20155	0.679303
71	1.16386	0.721219	0.198085	0.87131	0.655669	0.195995	0.615248	0.573569	1.43904	0.704846	0.382908	1.47659	0.545302	0.454765	1.37481	0.618279	0.642159	0.138958	0.8624	0.628209	0.242568	0.81379	0.603451	0.139763	0.559506	0.559149	0.245984	0.577292	0.693506	0.0553957	0.821742	0.701999	0.0468071	0.900198	0.583723	1.27591	0.827535	0.493968	1.58552	0.699494	0.651072	0.915317	0.801517	0.417786	1.0862	0.964669	0.444211	1.0882	0.905638	0.383116	1.10564	0.959827	0.633078	0.537814	0.845698	0.616661	0.673803	0.831376	0.52934	0.448113	0.77379	0.507644	0.614184	0.697257	0.375398	1.61449	0.622903	0.321586	0.755774	0.878579	0.537637	0.490304	0.854036	0.487701	0.663242	0.859945	0.606621	0.504374	0.731175	0.596313	0.654928	0.705116	0.516493	0.0248177	0.868361	0.368168	0.97824	0.949369	0.407247	0.894463	0.74456	0.423841	1.24041	0.824602	0.446503	1.1957	0.924989	0.352498	0.743653	0.851814	0.356004	0.722657	0.849524	0.346352	0.695329	0.845687	0.363489	0.678751	0.844421	0.347344	0.727136	0.946391	0.359868	0.718499	0.948726	0.350352	0.740277	0.880172	0.353961	0.71545	0.881973	0.359645	0.69047	0.87979	0.363959	0.669848	0.883187	0.350524	0.764423	0.925102	0.352148	0.7502	0.932354	0.349972	0.746618	0.902659	0.353052	0.726358	0.906499	0.35732	0.710355	0.910006	0.356722	0.814506	0.832312	0.354949	0.801453	0.818396	0.357901	0.787232	0.806232	0.361066	0.772593	0.79656	0.702409	-0.0321897	0.891215	0.742348	-0.00715178	0.890894	0.375932	1.18372	0.843453	0.356212	0.658599	0.884595	0.344601	0.78858	0.927898	0.334342	0.808322	0.816026	0.359639	1.25368	0.896897	0.331214	0.73551	0.851651	0.337723	0.715795	0.848061	0.360363	0.702933	0.849588	0.353021	0.675995	0.845088	0.357272	0.732474	0.942378	0.32911	0.733161	0.878399	0.335676	0.710648	0.879632	0.345499	0.68626	0.880713	0.350358	0.669723	0.882718	0.333471	0.765071	0.927748	0.338631	0.748095	0.936547	0.350599	0.717181	0.950393	0.331649	0.74097	0.904042	0.336422	0.722832	0.90701	0.342761	0.705794	0.90959	0.322334	0.811114	0.829647	0.333199	0.794057	0.814576	0.338764	0.776795	0.801674	0.340991	0.767251	0.794264	0.350677	0.68	0.914251	0.582384	0.430722	0.868829	0.603382	0.417241	0.75709	0.524069	0.0260448	0.825317	0.534029	1.41256	0.794594	0.652326	0.33915	0.908135	0.399659	1.40161	0.795771	0.574063	0.352587	0.818405	0.615932	0.210065	0.862307	0.655192	0.108508	0.844809	0.489819	0.0213565	0.78626	0.559331	0.0205033	0.896098	0.55942	-0.00189042	0.789637	0.642389	1.06808	0.754346	0.64438	1.0366	0.753714	0.310348	0.862532	0.849161	0.314718	0.855725	0.911024	0.380618	1.57824	0.537546	0.600503	0.0606917	0.624443	0.662931	0.0423192	0.589688	0.692868	1.27576	0.6823	0.562094	1.57955	0.614589	0.692345	0.916312	0.745173	0.772379	1.06421	0.465694	0.716218	1.07482	0.507937	0.761855	1.09665	0.439534	0.622549	0.509958	0.598907	0.666736	0.640947	0.651414	0.494498	0.472972	0.505995	0.486237	0.653289	0.58768	0.465535	1.60642	0.514693	0.664122	0.75122	0.396286	0.594866	0.504673	0.509745	0.622639	0.67966	0.502176	0.522088	0.505657	0.630043	0.53765	0.647289	0.667748	0.527109	0.0272684	0.450071	0.756844	0.973502	0.424868	0.570971	0.898045	0.530786	0.644204	1.23039	0.521836	0.743626	1.17832	0.517566	0.661669	0.743318	0.438305	0.659625	0.719478	0.438515	0.655747	0.702663	0.44741	0.651304	0.679704	0.451905	0.680272	0.732519	0.417301	0.676541	0.707573	0.42012	0.663582	0.664439	0.42014	0.723665	0.745015	0.384167	0.726321	0.72893	0.381827	0.729136	0.70787	0.382904	0.733081	0.693074	0.380699	0.698455	0.73217	0.401109	0.697866	0.711107	0.401727	0.699603	0.694413	0.403721	0.700369	0.669588	0.405396	0.676695	0.688588	0.42342	0.647328	0.809714	0.416616	0.642911	0.801505	0.443597	0.651228	0.795462	0.468191	0.6355	0.782502	0.486546	0.650193	-0.0321314	0.598839	0.676417	-0.00840145	0.631033	0.655733	1.15791	0.462388	0.665897	0.652847	0.423976	0.724221	0.765937	0.377885	0.644072	0.820085	0.444794	0.70784	1.22548	0.449327	0.646026	0.738152	0.423188	0.643034	0.718804	0.431374	0.642018	0.698137	0.440173	0.641791	0.679536	0.446404	0.663037	0.728683	0.403572	0.66245	0.705832	0.409024	0.672267	0.662583	0.429829	0.710259	0.744347	0.371477	0.716103	0.726164	0.371046	0.722666	0.707555	0.372223	0.726491	0.692564	0.373477	0.685635	0.728449	0.38644	0.686388	0.709805	0.389234	0.688264	0.691804	0.393122	0.690602	0.669856	0.396744	0.662506	0.689443	0.414513	0.679998	0.809633	0.437612	0.658878	0.803108	0.455488	0.638519	0.795163	0.453183	0.61905	0.785387	0.48461	0.405654	1.04454	0.780728	0.625756	1.06065	0.530166	0.404469	1.34675	0.682391	0.505528	1.34271	0.55337	0.579543	0.429192	0.504288	0.503625	0.423133	0.593541	0.50019	0.0308977	0.481627	0.65495	1.40041	0.647527	0.63855	0.260119	0.53002	0.617874	1.39683	0.517082	0.530683	0.355064	0.530765	0.563934	0.241646	0.550555	0.595584	0.11	0.58022	0.452012	0.0246201	0.481814	0.579605	0.0179017	0.4689	0.492063	0.00189477	0.535828	0.659037	0.86036	0.387264	0.714567	0.846128	0.365755	0.483158	1.70885	0.612887	0.458737	1.49482	0.604731	0.689948	0.0379332	0.852231	0.470476	1.32148	0.728704	0.405724	1.09066	0.932384	0.552423	0.0144508	0.853073	0.534839	0.782577	0.746395	0.342183	0.753311	0.855075	0.346589	0.72066	0.849532	0.353704	0.698304	0.847456	0.590365	0.431432	0.823391	0.340846	0.743579	0.879006	0.346472	0.711848	0.88101	0.353475	0.687997	0.882992	0.343501	0.76824	0.923178	0.34713	0.750718	0.93339	0.351928	0.733695	0.942657	0.340988	0.754761	0.904452	0.345565	0.725327	0.906548	0.352167	0.701906	0.91133	0.397413	1.32237	0.844662	0.341563	0.818676	0.851051	0.34199	0.801383	0.824368	0.348651	0.780695	0.807402	0.312	0.854002	0.883715	0.521447	1.42839	0.653136	0.556716	0.868813	0.686933	0.619635	0.0392287	0.610454	0.575501	1.32053	0.602201	0.737854	1.08357	0.467308	0.532261	0.0173995	0.494002	0.603444	0.775814	0.639775	0.660035	0.75364	0.427826	0.650675	0.722	0.436593	0.648721	0.699729	0.444211	0.552134	0.428859	0.540944	0.673886	0.73718	0.410774	0.670259	0.705435	0.415729	0.670134	0.681354	0.421131	0.714825	0.748152	0.381991	0.720454	0.72861	0.379581	0.72603	0.709649	0.378537	0.69581	0.740534	0.392833	0.692726	0.711105	0.396245	0.694992	0.686557	0.399332	0.655779	1.32148	0.504877	0.674831	0.818066	0.422633	0.652951	0.80996	0.445103	0.641219	0.794556	0.465443	0.690162	0.844215	0.376238	0.587665	1.00263	0.714731	0.537917	1.1432	0.689104	0.524042	1.20034	0.674403
72	1.18262	0.720047	0.20053	0.870623	0.654329	0.197068	0.613065	0.569759	1.43955	0.698857	0.379132	1.47618	0.53902	0.451056	1.37504	0.612382	0.641515	0.140683	0.861851	0.626903	0.243795	0.81238	0.602666	0.140194	0.557566	0.557537	0.246204	0.574627	0.693722	0.0572368	0.822055	0.701972	0.0493352	0.900617	0.579866	1.27676	0.821992	0.489684	1.58591	0.69301	0.647025	0.915891	0.796822	0.4159	1.08695	0.959182	0.442332	1.08917	0.900213	0.38108	1.10607	0.954287	0.629614	0.539096	0.842361	0.612765	0.674874	0.827425	0.526567	0.448526	0.77044	0.50454	0.614321	0.69315	0.371084	1.61427	0.616216	0.323661	0.755474	0.871877	0.534357	0.491186	0.850532	0.483709	0.66398	0.855521	0.603773	0.505005	0.727886	0.592982	0.655432	0.701166	0.516781	0.0255859	0.868199	0.367528	0.978451	0.943763	0.403225	0.894838	0.739551	0.420667	1.24115	0.818962	0.443912	1.19661	0.919338	0.355479	0.743937	0.845932	0.359233	0.723001	0.843493	0.349936	0.695647	0.839023	0.367243	0.679225	0.838084	0.347561	0.726198	0.940092	0.360079	0.717635	0.942706	0.352493	0.74019	0.874164	0.356254	0.715372	0.875773	0.362214	0.690469	0.87346	0.366596	0.669841	0.876735	0.351079	0.763773	0.919371	0.352598	0.749474	0.926494	0.351367	0.746246	0.896705	0.3545	0.725966	0.900389	0.358794	0.709955	0.90383	0.359686	0.815055	0.827425	0.358468	0.802169	0.81331	0.361916	0.788127	0.801071	0.365502	0.773636	0.791325	0.703054	-0.0297217	0.892259	0.742791	-0.00436199	0.8919	0.373211	1.18413	0.837994	0.358905	0.658514	0.877764	0.34487	0.787845	0.922279	0.337883	0.808897	0.810395	0.35662	1.25402	0.891442	0.334282	0.735625	0.84501	0.341066	0.716012	0.841381	0.363755	0.703314	0.843449	0.356784	0.676376	0.838394	0.357562	0.731667	0.936454	0.331377	0.732927	0.871651	0.338095	0.710455	0.872811	0.348082	0.686134	0.873893	0.353018	0.669613	0.875845	0.333947	0.76425	0.921496	0.338977	0.747208	0.930242	0.350775	0.716221	0.944071	0.333062	0.740435	0.897454	0.337892	0.7223	0.900343	0.344293	0.705282	0.902909	0.32542	0.811411	0.823684	0.336911	0.794646	0.808735	0.343017	0.777593	0.7958	0.345551	0.76816	0.788346	0.352279	0.679496	0.907504	0.579316	0.431939	0.865782	0.600857	0.417898	0.754214	0.524521	0.0265337	0.825174	0.530173	1.4133	0.788663	0.649829	0.341273	0.906066	0.395802	1.4021	0.79006	0.571809	0.353403	0.815905	0.614698	0.211567	0.861099	0.654887	0.110211	0.84456	0.490472	0.0212565	0.786017	0.559531	0.0218382	0.896136	0.560239	-0.00139552	0.789856	0.6384	1.06855	0.749434	0.640359	1.03708	0.748852	0.311943	0.862266	0.84339	0.315377	0.855168	0.905235	0.376507	1.5778	0.530967	0.600118	0.0614827	0.622925	0.662732	0.043221	0.588426	0.689077	1.27618	0.676903	0.55791	1.57993	0.608189	0.688365	0.916833	0.740526	0.771111	1.06501	0.462951	0.714311	1.0752	0.504472	0.760496	1.09713	0.436393	0.619432	0.510293	0.59497	0.66327	0.641462	0.647189	0.491587	0.472555	0.502116	0.482794	0.653161	0.583381	0.461361	1.60619	0.508122	0.667593	0.750721	0.393298	0.591843	0.504654	0.505837	0.619152	0.679707	0.497851	0.518984	0.505744	0.626081	0.534194	0.647518	0.663478	0.527435	0.0278618	0.448388	0.757608	0.973999	0.422269	0.567202	0.898225	0.526001	0.641312	1.23046	0.517009	0.741133	1.17908	0.513605	0.663732	0.743371	0.435312	0.661844	0.719523	0.43578	0.657772	0.702802	0.444767	0.653331	0.679875	0.449421	0.683128	0.732424	0.415118	0.67947	0.707492	0.41815	0.666811	0.66427	0.418316	0.727564	0.744784	0.383341	0.730409	0.728689	0.381317	0.733326	0.707667	0.382783	0.737444	0.692871	0.38092	0.701866	0.731988	0.399574	0.701399	0.710932	0.400462	0.703179	0.694279	0.402745	0.704053	0.669485	0.404788	0.679638	0.688556	0.421716	0.649703	0.809359	0.412234	0.644407	0.801487	0.439147	0.651902	0.795839	0.464094	0.635631	0.783016	0.482069	0.650024	-0.0313032	0.597657	0.676153	-0.00745368	0.629917	0.65363	1.15765	0.458163	0.66907	0.652748	0.42239	0.728196	0.765622	0.376794	0.6454	0.820088	0.440129	0.705339	1.22549	0.444863	0.64866	0.737888	0.419734	0.645517	0.718631	0.428077	0.644334	0.69808	0.437121	0.644017	0.679563	0.443596	0.666408	0.728278	0.400853	0.665786	0.705499	0.406597	0.675166	0.662608	0.428325	0.714613	0.743847	0.370204	0.720592	0.725703	0.370227	0.727234	0.707159	0.371889	0.731106	0.692215	0.373475	0.689591	0.727976	0.38452	0.690372	0.709377	0.387597	0.692233	0.691444	0.391796	0.694592	0.669565	0.3958	0.665762	0.689186	0.41231	0.681627	0.809799	0.434343	0.659939	0.803367	0.451561	0.639727	0.795245	0.44866	0.61924	0.785755	0.479523	0.401639	1.04524	0.775582	0.622064	1.06073	0.525263	0.400669	1.34717	0.676582	0.501872	1.34274	0.547579	0.576809	0.42913	0.500631	0.500798	0.423064	0.589804	0.500406	0.0315093	0.479849	0.651066	1.40083	0.641814	0.636925	0.260612	0.527428	0.614306	1.39684	0.51134	0.528392	0.35484	0.527425	0.562406	0.241747	0.547927	0.59503	0.110523	0.57847	0.452227	0.0252147	0.47987	0.579878	0.0185195	0.467424	0.492123	0.0025326	0.534078	0.662023	0.859552	0.382991	0.718416	0.845695	0.362984	0.478542	1.70896	0.606038	0.454844	1.49483	0.598471	0.690193	0.0399873	0.852674	0.466672	1.32203	0.722984	0.403849	1.09131	0.926899	0.55285	0.0153946	0.853134	0.530912	0.783023	0.741721	0.344989	0.75347	0.84899	0.349841	0.720929	0.843184	0.357206	0.698659	0.841055	0.587475	0.432415	0.820373	0.343	0.74343	0.872748	0.34883	0.711723	0.874535	0.35597	0.687907	0.876439	0.344087	0.767557	0.917279	0.347547	0.749939	0.927381	0.352202	0.732841	0.936582	0.342264	0.754293	0.898321	0.347024	0.724874	0.900195	0.353674	0.701449	0.904891	0.393829	1.32292	0.839059	0.343889	0.81885	0.845742	0.345324	0.801915	0.818881	0.352689	0.781501	0.801875	0.31309	0.85355	0.877905	0.517698	1.42873	0.647135	0.552823	0.869195	0.682182	0.619378	0.0400621	0.609067	0.571785	1.32072	0.596556	0.736278	1.08393	0.463977	0.532448	0.0180253	0.492362	0.599656	0.776159	0.635203	0.662394	0.753539	0.424641	0.652948	0.721953	0.433514	0.650882	0.699774	0.441367	0.549349	0.42881	0.537247	0.676942	0.73695	0.40831	0.67336	0.705249	0.413573	0.673211	0.681244	0.4193	0.718784	0.747828	0.380816	0.724626	0.728296	0.378874	0.730362	0.709364	0.378286	0.699454	0.740219	0.391096	0.696453	0.710818	0.394806	0.698777	0.686331	0.398308	0.652387	1.32154	0.49951	0.676942	0.817972	0.4191	0.654331	0.810032	0.440888	0.642001	0.794824	0.461013	0.693687	0.843619	0.372892	0.583675	1.00307	0.709845	0.534105	1.14364	0.683929	0.520271	1.20074	0.669063
